<mxfile host="Electron" modified="2023-08-09T04:13:43.913Z" agent="Mozilla/5.0 (Windows NT 10.0; Win64; x64) AppleWebKit/537.36 (KHTML, like Gecko) draw.io/21.6.5 Chrome/114.0.5735.243 Electron/25.3.1 Safari/537.36" etag="32GPaWqJIsueybU_Kxsj" version="21.6.5" type="device">
  <diagram name="Page-1" id="VHgu3Y3rq5o5_nkYWmtT">
    <mxGraphModel dx="880" dy="545" grid="1" gridSize="10" guides="1" tooltips="1" connect="1" arrows="1" fold="1" page="1" pageScale="1" pageWidth="1169" pageHeight="827" math="0" shadow="0">
      <root>
        <mxCell id="0" />
        <mxCell id="1" parent="0" />
        <mxCell id="NpCfHbmrvsdoNfH_4CD--2" value="&lt;span style=&quot;font-weight: normal;&quot;&gt;«model»&lt;br&gt;OrderEntry&lt;/span&gt;" style="shape=folder;fontStyle=1;tabWidth=110;tabHeight=30;tabPosition=left;html=1;boundedLbl=1;labelInHeader=1;container=1;collapsible=0;whiteSpace=wrap;fontFamily=Helvetica;fontSize=11;fontColor=default;" vertex="1" parent="1">
          <mxGeometry width="360" height="170" as="geometry" />
        </mxCell>
        <mxCell id="NpCfHbmrvsdoNfH_4CD--3" value="" style="html=1;strokeColor=none;resizeWidth=1;resizeHeight=1;fillColor=none;part=1;connectable=0;allowArrows=0;deletable=0;whiteSpace=wrap;fontFamily=Helvetica;fontSize=11;fontColor=default;" vertex="1" parent="NpCfHbmrvsdoNfH_4CD--2">
          <mxGeometry width="360" height="149.6" relative="1" as="geometry">
            <mxPoint y="30" as="offset" />
          </mxGeometry>
        </mxCell>
        <mxCell id="NpCfHbmrvsdoNfH_4CD--1" value="&lt;span style=&quot;font-weight: normal;&quot;&gt;Analysis&lt;br&gt;Model&lt;/span&gt;" style="shape=folder;fontStyle=1;tabWidth=40;tabHeight=20;tabPosition=left;html=1;boundedLbl=1;folderSymbol=triangle;whiteSpace=wrap;fontFamily=Helvetica;fontSize=11;fontColor=default;" vertex="1" parent="NpCfHbmrvsdoNfH_4CD--2">
          <mxGeometry x="20" y="50" width="120" height="90" as="geometry" />
        </mxCell>
        <mxCell id="NpCfHbmrvsdoNfH_4CD--5" value="&lt;span style=&quot;font-weight: normal;&quot;&gt;Design&lt;br&gt;Model&lt;/span&gt;" style="shape=folder;fontStyle=1;tabWidth=40;tabHeight=20;tabPosition=left;html=1;boundedLbl=1;folderSymbol=triangle;whiteSpace=wrap;fontFamily=Helvetica;fontSize=11;fontColor=default;" vertex="1" parent="NpCfHbmrvsdoNfH_4CD--2">
          <mxGeometry x="220" y="50" width="120" height="90" as="geometry" />
        </mxCell>
        <mxCell id="NpCfHbmrvsdoNfH_4CD--7" value="&lt;b&gt;Figure 12.11 Two Views of One System Collected in a Container Model&lt;/b&gt;" style="text;html=1;align=left;verticalAlign=middle;resizable=0;points=[];autosize=1;strokeColor=none;fillColor=none;fontSize=11;fontFamily=Helvetica;fontColor=default;" vertex="1" parent="1">
          <mxGeometry y="170" width="390" height="30" as="geometry" />
        </mxCell>
      </root>
    </mxGraphModel>
  </diagram>
</mxfile>
